<mxfile host="app.diagrams.net" agent="Mozilla/5.0 (Windows NT 10.0; Win64; x64) AppleWebKit/537.36 (KHTML, like Gecko) Chrome/132.0.0.0 Safari/537.36" version="26.1.0">
  <diagram id="C5RBs43oDa-KdzZeNtuy" name="Page-1">
    <mxGraphModel dx="701" dy="2085" grid="1" gridSize="10" guides="1" tooltips="1" connect="1" arrows="1" fold="1" page="1" pageScale="1" pageWidth="827" pageHeight="1169" math="0" shadow="0">
      <root>
        <mxCell id="WIyWlLk6GJQsqaUBKTNV-0" />
        <mxCell id="WIyWlLk6GJQsqaUBKTNV-1" parent="WIyWlLk6GJQsqaUBKTNV-0" />
        <mxCell id="I0WviCcc3iurpeJ7TXYC-105" value="" style="edgeStyle=orthogonalEdgeStyle;rounded=0;orthogonalLoop=1;jettySize=auto;html=1;entryX=0.5;entryY=0;entryDx=0;entryDy=0;" parent="WIyWlLk6GJQsqaUBKTNV-1" source="I0WviCcc3iurpeJ7TXYC-101" target="I0WviCcc3iurpeJ7TXYC-106" edge="1">
          <mxGeometry relative="1" as="geometry">
            <mxPoint x="375" y="-975" as="targetPoint" />
          </mxGeometry>
        </mxCell>
        <mxCell id="I0WviCcc3iurpeJ7TXYC-101" value="(0)&lt;div&gt;delivery_bill(weight: float, delivery_type: str, distance: float)&lt;/div&gt;" style="rounded=1;whiteSpace=wrap;html=1;" parent="WIyWlLk6GJQsqaUBKTNV-1" vertex="1">
          <mxGeometry x="275" y="-1140" width="190" height="70" as="geometry" />
        </mxCell>
        <mxCell id="I0WviCcc3iurpeJ7TXYC-109" value="" style="edgeStyle=orthogonalEdgeStyle;rounded=0;orthogonalLoop=1;jettySize=auto;html=1;" parent="WIyWlLk6GJQsqaUBKTNV-1" source="I0WviCcc3iurpeJ7TXYC-106" target="I0WviCcc3iurpeJ7TXYC-108" edge="1">
          <mxGeometry relative="1" as="geometry" />
        </mxCell>
        <mxCell id="I0WviCcc3iurpeJ7TXYC-106" value="&lt;div&gt;(1) price_ranges = [&lt;/div&gt;&lt;div&gt;&amp;nbsp; &amp;nbsp; &amp;nbsp; &amp;nbsp; (5.0, {&quot;thường&quot;: 10000, &quot;hỏa tốc&quot;: 35000}),&lt;/div&gt;&lt;div&gt;&amp;nbsp; &amp;nbsp; &amp;nbsp; &amp;nbsp; (20.0, {&quot;thường&quot;: 8000, &quot;hỏa tốc&quot;: 26000}),&lt;/div&gt;&lt;div&gt;&amp;nbsp; &amp;nbsp; &amp;nbsp; &amp;nbsp; (200, {&quot;thường&quot;: 6000, &quot;hỏa tốc&quot;: 15000})&lt;span style=&quot;background-color: initial;&quot;&gt;&amp;nbsp;]&lt;/span&gt;&lt;/div&gt;" style="rounded=0;whiteSpace=wrap;html=1;" parent="WIyWlLk6GJQsqaUBKTNV-1" vertex="1">
          <mxGeometry x="226.88" y="-1030" width="286.25" height="80" as="geometry" />
        </mxCell>
        <mxCell id="I0WviCcc3iurpeJ7TXYC-111" value="" style="edgeStyle=orthogonalEdgeStyle;rounded=0;orthogonalLoop=1;jettySize=auto;html=1;" parent="WIyWlLk6GJQsqaUBKTNV-1" source="I0WviCcc3iurpeJ7TXYC-108" target="I0WviCcc3iurpeJ7TXYC-110" edge="1">
          <mxGeometry relative="1" as="geometry" />
        </mxCell>
        <mxCell id="I0WviCcc3iurpeJ7TXYC-114" value="" style="edgeStyle=orthogonalEdgeStyle;rounded=0;orthogonalLoop=1;jettySize=auto;html=1;" parent="WIyWlLk6GJQsqaUBKTNV-1" source="I0WviCcc3iurpeJ7TXYC-108" target="I0WviCcc3iurpeJ7TXYC-113" edge="1">
          <mxGeometry relative="1" as="geometry" />
        </mxCell>
        <mxCell id="I0WviCcc3iurpeJ7TXYC-108" value="(2)&lt;div&gt;delivery_type not in [&quot;thường&quot;, &quot;hỏa tốc&quot;]&lt;/div&gt;" style="rhombus;whiteSpace=wrap;html=1;rounded=0;" parent="WIyWlLk6GJQsqaUBKTNV-1" vertex="1">
          <mxGeometry x="265" y="-905" width="210" height="120" as="geometry" />
        </mxCell>
        <mxCell id="I0WviCcc3iurpeJ7TXYC-152" value="" style="edgeStyle=orthogonalEdgeStyle;rounded=0;orthogonalLoop=1;jettySize=auto;html=1;entryX=0.5;entryY=0;entryDx=0;entryDy=0;" parent="WIyWlLk6GJQsqaUBKTNV-1" source="I0WviCcc3iurpeJ7TXYC-110" target="I0WviCcc3iurpeJ7TXYC-150" edge="1">
          <mxGeometry relative="1" as="geometry">
            <mxPoint x="787.5" y="-830" as="targetPoint" />
            <Array as="points">
              <mxPoint x="720" y="-830" />
            </Array>
          </mxGeometry>
        </mxCell>
        <mxCell id="I0WviCcc3iurpeJ7TXYC-110" value="(3)&lt;div&gt;raise ValueError(&quot;Loại dịch vụ không hợp lệ!&quot;)&lt;/div&gt;" style="whiteSpace=wrap;html=1;rounded=0;" parent="WIyWlLk6GJQsqaUBKTNV-1" vertex="1">
          <mxGeometry x="550" y="-875" width="135" height="60" as="geometry" />
        </mxCell>
        <mxCell id="I0WviCcc3iurpeJ7TXYC-112" value="T" style="text;html=1;align=center;verticalAlign=middle;whiteSpace=wrap;rounded=0;" parent="WIyWlLk6GJQsqaUBKTNV-1" vertex="1">
          <mxGeometry x="480" y="-870" width="60" height="30" as="geometry" />
        </mxCell>
        <mxCell id="I0WviCcc3iurpeJ7TXYC-117" value="" style="edgeStyle=orthogonalEdgeStyle;rounded=0;orthogonalLoop=1;jettySize=auto;html=1;entryX=0.5;entryY=0;entryDx=0;entryDy=0;" parent="WIyWlLk6GJQsqaUBKTNV-1" source="I0WviCcc3iurpeJ7TXYC-113" target="I0WviCcc3iurpeJ7TXYC-118" edge="1">
          <mxGeometry relative="1" as="geometry">
            <mxPoint x="375" y="-620" as="targetPoint" />
          </mxGeometry>
        </mxCell>
        <mxCell id="I0WviCcc3iurpeJ7TXYC-113" value="(4) rate = 0" style="whiteSpace=wrap;html=1;rounded=0;" parent="WIyWlLk6GJQsqaUBKTNV-1" vertex="1">
          <mxGeometry x="310.01" y="-740" width="120" height="60" as="geometry" />
        </mxCell>
        <mxCell id="I0WviCcc3iurpeJ7TXYC-115" value="F" style="text;html=1;align=center;verticalAlign=middle;whiteSpace=wrap;rounded=0;" parent="WIyWlLk6GJQsqaUBKTNV-1" vertex="1">
          <mxGeometry x="354" y="-770" width="60" height="30" as="geometry" />
        </mxCell>
        <mxCell id="I0WviCcc3iurpeJ7TXYC-127" value="" style="edgeStyle=orthogonalEdgeStyle;rounded=0;orthogonalLoop=1;jettySize=auto;html=1;" parent="WIyWlLk6GJQsqaUBKTNV-1" source="I0WviCcc3iurpeJ7TXYC-118" target="I0WviCcc3iurpeJ7TXYC-126" edge="1">
          <mxGeometry relative="1" as="geometry" />
        </mxCell>
        <mxCell id="I0WviCcc3iurpeJ7TXYC-130" value="" style="edgeStyle=orthogonalEdgeStyle;rounded=0;orthogonalLoop=1;jettySize=auto;html=1;entryX=1;entryY=0.5;entryDx=0;entryDy=0;" parent="WIyWlLk6GJQsqaUBKTNV-1" source="I0WviCcc3iurpeJ7TXYC-118" target="I0WviCcc3iurpeJ7TXYC-131" edge="1">
          <mxGeometry relative="1" as="geometry">
            <mxPoint x="550" y="-584.5000000000002" as="targetPoint" />
            <Array as="points">
              <mxPoint x="480" y="-584" />
              <mxPoint x="480" y="-140" />
            </Array>
          </mxGeometry>
        </mxCell>
        <mxCell id="I0WviCcc3iurpeJ7TXYC-118" value="(5)&lt;div&gt;&lt;span style=&quot;font-size: 10px; background-color: transparent; color: light-dark(rgb(0, 0, 0), rgb(255, 255, 255));&quot;&gt;price_ranges has no un&lt;/span&gt;&lt;span style=&quot;font-size: 10px; background-color: transparent; color: light-dark(rgb(0, 0, 0), rgb(255, 255, 255));&quot;&gt;checked&amp;nbsp;&lt;/span&gt;&lt;span style=&quot;font-size: 10px; background-color: transparent; color: light-dark(rgb(0, 0, 0), rgb(255, 255, 255));&quot;&gt;elements ?&lt;/span&gt;&lt;/div&gt;" style="rhombus;whiteSpace=wrap;html=1;rounded=0;" parent="WIyWlLk6GJQsqaUBKTNV-1" vertex="1">
          <mxGeometry x="290" y="-644" width="160" height="118.5" as="geometry" />
        </mxCell>
        <mxCell id="I0WviCcc3iurpeJ7TXYC-123" value="" style="edgeStyle=orthogonalEdgeStyle;rounded=0;orthogonalLoop=1;jettySize=auto;html=1;" parent="WIyWlLk6GJQsqaUBKTNV-1" source="I0WviCcc3iurpeJ7TXYC-120" target="I0WviCcc3iurpeJ7TXYC-122" edge="1">
          <mxGeometry relative="1" as="geometry" />
        </mxCell>
        <mxCell id="I0WviCcc3iurpeJ7TXYC-125" value="" style="edgeStyle=orthogonalEdgeStyle;rounded=0;orthogonalLoop=1;jettySize=auto;html=1;entryX=0;entryY=0.5;entryDx=0;entryDy=0;exitX=0;exitY=0.5;exitDx=0;exitDy=0;" parent="WIyWlLk6GJQsqaUBKTNV-1" source="I0WviCcc3iurpeJ7TXYC-120" target="I0WviCcc3iurpeJ7TXYC-118" edge="1">
          <mxGeometry relative="1" as="geometry">
            <mxPoint x="290" y="-600" as="targetPoint" />
            <Array as="points">
              <mxPoint x="240" y="-350" />
              <mxPoint x="240" y="-584" />
            </Array>
          </mxGeometry>
        </mxCell>
        <mxCell id="I0WviCcc3iurpeJ7TXYC-120" value="(7)&lt;div&gt;weight &amp;lt;= limit&lt;/div&gt;" style="rhombus;whiteSpace=wrap;html=1;rounded=0;" parent="WIyWlLk6GJQsqaUBKTNV-1" vertex="1">
          <mxGeometry x="315" y="-390" width="110" height="80" as="geometry" />
        </mxCell>
        <mxCell id="I0WviCcc3iurpeJ7TXYC-132" value="" style="edgeStyle=orthogonalEdgeStyle;rounded=0;orthogonalLoop=1;jettySize=auto;html=1;" parent="WIyWlLk6GJQsqaUBKTNV-1" source="I0WviCcc3iurpeJ7TXYC-122" target="I0WviCcc3iurpeJ7TXYC-131" edge="1">
          <mxGeometry relative="1" as="geometry" />
        </mxCell>
        <mxCell id="I0WviCcc3iurpeJ7TXYC-122" value="(8) rate = rates[delivery_type]&lt;div&gt;break&lt;/div&gt;" style="whiteSpace=wrap;html=1;rounded=0;" parent="WIyWlLk6GJQsqaUBKTNV-1" vertex="1">
          <mxGeometry x="310" y="-270" width="120" height="60" as="geometry" />
        </mxCell>
        <mxCell id="I0WviCcc3iurpeJ7TXYC-128" value="" style="edgeStyle=orthogonalEdgeStyle;rounded=0;orthogonalLoop=1;jettySize=auto;html=1;" parent="WIyWlLk6GJQsqaUBKTNV-1" source="I0WviCcc3iurpeJ7TXYC-126" target="I0WviCcc3iurpeJ7TXYC-120" edge="1">
          <mxGeometry relative="1" as="geometry" />
        </mxCell>
        <mxCell id="I0WviCcc3iurpeJ7TXYC-126" value="(6)&amp;nbsp;&lt;div&gt;&amp;nbsp;iterate (limit, rates) = tuple from price_ranges&lt;/div&gt;" style="whiteSpace=wrap;html=1;rounded=0;" parent="WIyWlLk6GJQsqaUBKTNV-1" vertex="1">
          <mxGeometry x="310" y="-480" width="120" height="60" as="geometry" />
        </mxCell>
        <mxCell id="I0WviCcc3iurpeJ7TXYC-139" value="" style="edgeStyle=orthogonalEdgeStyle;rounded=0;orthogonalLoop=1;jettySize=auto;html=1;" parent="WIyWlLk6GJQsqaUBKTNV-1" source="I0WviCcc3iurpeJ7TXYC-131" target="I0WviCcc3iurpeJ7TXYC-138" edge="1">
          <mxGeometry relative="1" as="geometry" />
        </mxCell>
        <mxCell id="I0WviCcc3iurpeJ7TXYC-131" value="(9) total_cost = weight*rate" style="whiteSpace=wrap;html=1;rounded=0;" parent="WIyWlLk6GJQsqaUBKTNV-1" vertex="1">
          <mxGeometry x="310" y="-170" width="120" height="60" as="geometry" />
        </mxCell>
        <mxCell id="I0WviCcc3iurpeJ7TXYC-134" value="T" style="text;html=1;align=center;verticalAlign=middle;whiteSpace=wrap;rounded=0;" parent="WIyWlLk6GJQsqaUBKTNV-1" vertex="1">
          <mxGeometry x="435" y="-600" width="45" height="20" as="geometry" />
        </mxCell>
        <mxCell id="I0WviCcc3iurpeJ7TXYC-135" value="F" style="text;html=1;align=center;verticalAlign=middle;whiteSpace=wrap;rounded=0;" parent="WIyWlLk6GJQsqaUBKTNV-1" vertex="1">
          <mxGeometry x="270" y="-370" width="45" height="20" as="geometry" />
        </mxCell>
        <mxCell id="I0WviCcc3iurpeJ7TXYC-136" value="F" style="text;html=1;align=center;verticalAlign=middle;whiteSpace=wrap;rounded=0;" parent="WIyWlLk6GJQsqaUBKTNV-1" vertex="1">
          <mxGeometry x="361.5" y="-530" width="45" height="20" as="geometry" />
        </mxCell>
        <mxCell id="I0WviCcc3iurpeJ7TXYC-137" value="T" style="text;html=1;align=center;verticalAlign=middle;whiteSpace=wrap;rounded=0;" parent="WIyWlLk6GJQsqaUBKTNV-1" vertex="1">
          <mxGeometry x="361.5" y="-300" width="45" height="20" as="geometry" />
        </mxCell>
        <mxCell id="I0WviCcc3iurpeJ7TXYC-141" value="" style="edgeStyle=orthogonalEdgeStyle;rounded=0;orthogonalLoop=1;jettySize=auto;html=1;" parent="WIyWlLk6GJQsqaUBKTNV-1" source="I0WviCcc3iurpeJ7TXYC-138" target="I0WviCcc3iurpeJ7TXYC-140" edge="1">
          <mxGeometry relative="1" as="geometry" />
        </mxCell>
        <mxCell id="I0WviCcc3iurpeJ7TXYC-143" value="" style="edgeStyle=orthogonalEdgeStyle;rounded=0;orthogonalLoop=1;jettySize=auto;html=1;" parent="WIyWlLk6GJQsqaUBKTNV-1" source="I0WviCcc3iurpeJ7TXYC-138" target="I0WviCcc3iurpeJ7TXYC-142" edge="1">
          <mxGeometry relative="1" as="geometry" />
        </mxCell>
        <mxCell id="I0WviCcc3iurpeJ7TXYC-138" value="(10)&lt;div&gt;distance &amp;lt; 10&lt;/div&gt;" style="rhombus;whiteSpace=wrap;html=1;rounded=0;" parent="WIyWlLk6GJQsqaUBKTNV-1" vertex="1">
          <mxGeometry x="305.01" y="-40" width="130" height="80" as="geometry" />
        </mxCell>
        <mxCell id="I0WviCcc3iurpeJ7TXYC-160" value="" style="edgeStyle=orthogonalEdgeStyle;rounded=0;orthogonalLoop=1;jettySize=auto;html=1;entryX=1;entryY=0.75;entryDx=0;entryDy=0;" parent="WIyWlLk6GJQsqaUBKTNV-1" source="I0WviCcc3iurpeJ7TXYC-140" target="I0WviCcc3iurpeJ7TXYC-146" edge="1">
          <mxGeometry relative="1" as="geometry">
            <mxPoint x="744.9999999999998" as="targetPoint" />
            <Array as="points">
              <mxPoint x="680" />
              <mxPoint x="680" y="255" />
            </Array>
          </mxGeometry>
        </mxCell>
        <mxCell id="I0WviCcc3iurpeJ7TXYC-140" value="(11)&lt;div&gt;total_cost *= 1.05&lt;/div&gt;" style="whiteSpace=wrap;html=1;rounded=0;" parent="WIyWlLk6GJQsqaUBKTNV-1" vertex="1">
          <mxGeometry x="525" y="-30" width="120" height="60" as="geometry" />
        </mxCell>
        <mxCell id="I0WviCcc3iurpeJ7TXYC-145" value="" style="edgeStyle=orthogonalEdgeStyle;rounded=0;orthogonalLoop=1;jettySize=auto;html=1;" parent="WIyWlLk6GJQsqaUBKTNV-1" source="I0WviCcc3iurpeJ7TXYC-142" target="I0WviCcc3iurpeJ7TXYC-144" edge="1">
          <mxGeometry relative="1" as="geometry" />
        </mxCell>
        <mxCell id="I0WviCcc3iurpeJ7TXYC-147" value="" style="edgeStyle=orthogonalEdgeStyle;rounded=0;orthogonalLoop=1;jettySize=auto;html=1;" parent="WIyWlLk6GJQsqaUBKTNV-1" source="I0WviCcc3iurpeJ7TXYC-142" target="I0WviCcc3iurpeJ7TXYC-146" edge="1">
          <mxGeometry relative="1" as="geometry" />
        </mxCell>
        <mxCell id="I0WviCcc3iurpeJ7TXYC-142" value="(12)&lt;div&gt;distance &amp;gt; 50&lt;/div&gt;" style="rhombus;whiteSpace=wrap;html=1;rounded=0;" parent="WIyWlLk6GJQsqaUBKTNV-1" vertex="1">
          <mxGeometry x="305.01" y="80" width="130" height="80" as="geometry" />
        </mxCell>
        <mxCell id="I0WviCcc3iurpeJ7TXYC-156" value="" style="edgeStyle=orthogonalEdgeStyle;rounded=0;orthogonalLoop=1;jettySize=auto;html=1;entryX=1;entryY=0.25;entryDx=0;entryDy=0;" parent="WIyWlLk6GJQsqaUBKTNV-1" source="I0WviCcc3iurpeJ7TXYC-144" target="I0WviCcc3iurpeJ7TXYC-146" edge="1">
          <mxGeometry relative="1" as="geometry">
            <mxPoint x="745.01" y="110" as="targetPoint" />
            <Array as="points">
              <mxPoint x="650" y="110" />
              <mxPoint x="650" y="225" />
            </Array>
          </mxGeometry>
        </mxCell>
        <mxCell id="I0WviCcc3iurpeJ7TXYC-144" value="(13)&lt;div&gt;total_coost *= 1.1&lt;/div&gt;" style="whiteSpace=wrap;html=1;rounded=0;" parent="WIyWlLk6GJQsqaUBKTNV-1" vertex="1">
          <mxGeometry x="525" y="90" width="120" height="60" as="geometry" />
        </mxCell>
        <mxCell id="I0WviCcc3iurpeJ7TXYC-149" value="" style="edgeStyle=orthogonalEdgeStyle;rounded=0;orthogonalLoop=1;jettySize=auto;html=1;entryX=0;entryY=0.5;entryDx=0;entryDy=0;exitX=0.5;exitY=1;exitDx=0;exitDy=0;" parent="WIyWlLk6GJQsqaUBKTNV-1" source="I0WviCcc3iurpeJ7TXYC-146" target="I0WviCcc3iurpeJ7TXYC-150" edge="1">
          <mxGeometry relative="1" as="geometry">
            <mxPoint x="515.01" y="240" as="targetPoint" />
          </mxGeometry>
        </mxCell>
        <mxCell id="I0WviCcc3iurpeJ7TXYC-146" value="(14) return round(total_cost)" style="whiteSpace=wrap;html=1;rounded=0;" parent="WIyWlLk6GJQsqaUBKTNV-1" vertex="1">
          <mxGeometry x="310.01" y="210" width="120" height="60" as="geometry" />
        </mxCell>
        <mxCell id="I0WviCcc3iurpeJ7TXYC-150" value="exit" style="rounded=1;whiteSpace=wrap;html=1;" parent="WIyWlLk6GJQsqaUBKTNV-1" vertex="1">
          <mxGeometry x="690" y="270" width="60" height="40" as="geometry" />
        </mxCell>
        <mxCell id="I0WviCcc3iurpeJ7TXYC-161" value="F" style="text;html=1;align=center;verticalAlign=middle;whiteSpace=wrap;rounded=0;" parent="WIyWlLk6GJQsqaUBKTNV-1" vertex="1">
          <mxGeometry x="369" y="40" width="45" height="20" as="geometry" />
        </mxCell>
        <mxCell id="I0WviCcc3iurpeJ7TXYC-162" value="F" style="text;html=1;align=center;verticalAlign=middle;whiteSpace=wrap;rounded=0;" parent="WIyWlLk6GJQsqaUBKTNV-1" vertex="1">
          <mxGeometry x="361.5" y="170" width="45" height="20" as="geometry" />
        </mxCell>
        <mxCell id="I0WviCcc3iurpeJ7TXYC-163" value="T" style="text;html=1;align=center;verticalAlign=middle;whiteSpace=wrap;rounded=0;" parent="WIyWlLk6GJQsqaUBKTNV-1" vertex="1">
          <mxGeometry x="458.13" y="90" width="45" height="20" as="geometry" />
        </mxCell>
        <mxCell id="I0WviCcc3iurpeJ7TXYC-164" value="T" style="text;html=1;align=center;verticalAlign=middle;whiteSpace=wrap;rounded=0;" parent="WIyWlLk6GJQsqaUBKTNV-1" vertex="1">
          <mxGeometry x="458.13" y="-20" width="45" height="20" as="geometry" />
        </mxCell>
      </root>
    </mxGraphModel>
  </diagram>
</mxfile>
